<svg xmlns="http://www.w3.org/2000/svg" version="1.1" xmlns:xlink="http://www.w3.org/1999/xlink" xmlns:svgjs="http://svgjs.dev/svgjs" width="1000" height="1000" viewBox="0 0 1000 1000"><rect width="1000" height="1000" fill="#000000"></rect><g transform="matrix(0.7,0,0,0.7,149.57575757575756,282.1265587044535)"><svg viewBox="0 0 396 247" data-background-color="#ffffff" preserveAspectRatio="xMidYMid meet" height="623" width="1000" xmlns="http://www.w3.org/2000/svg" xmlns:xlink="http://www.w3.org/1999/xlink"><g id="tight-bounds" transform="matrix(1,0,0,1,0.2400000000000091,-0.09999999999999432)"><svg viewBox="0 0 395.52 247.2" height="247.2" width="395.52"><g><svg></svg></g><g><svg viewBox="0 0 395.52 247.2" height="247.2" width="395.52"><g transform="matrix(1,0,0,1,75.54432,94.40225921671018)"><svg viewBox="0 0 244.43135999999998 58.39548156657964" height="58.39548156657964" width="244.43135999999998"><g><svg viewBox="0 0 244.43135999999998 58.39548156657964" height="58.39548156657964" width="244.43135999999998"><g><svg viewBox="0 0 244.43135999999998 58.39548156657964" height="58.39548156657964" width="244.43135999999998"><g><svg viewBox="0 0 244.43135999999998 58.39548156657964" height="58.39548156657964" width="244.43135999999998"><g id="textblocktransform"><svg viewBox="0 0 244.43135999999998 58.39548156657964" height="58.39548156657964" width="244.43135999999998" id="textblock"><g><svg viewBox="0 0 244.43135999999998 58.39548156657964" height="58.39548156657964" width="244.43135999999998"><g transform="matrix(1,0,0,1,0,0)"><svg width="244.43135999999998" viewBox="0.5 -36.25 153.19000244140625 36.599998474121094" height="58.39548156657964" data-palette-color="#ceb700"><path d="M0.5-20.85L0.5-24.9 5-24.9 6-30.75 10.7-31.8 10.7-24.9 16.85-24.9 16.15-20.85 10.7-20.85 10.7-6.05Q10.7-4.75 11.4-4.38 12.1-4 12.95-4L12.95-4Q13.65-4 14.35-4.1 15.05-4.2 15.6-4.35L15.6-4.35Q16.25-4.5 16.85-4.7L16.85-4.7 17.8-0.95 17.35-0.8Q16.9-0.6 16.03-0.38 15.15-0.15 13.98 0.03 12.8 0.2 11.4 0.2L11.4 0.2Q10 0.2 8.83-0.1 7.65-0.4 6.8-1.07 5.95-1.75 5.48-2.8 5-3.85 5-5.4L5-5.4 5-20.85 0.5-20.85ZM19.05-11.85Q19.05-15.2 19.97-17.75 20.9-20.3 22.52-22.03 24.15-23.75 26.35-24.63 28.55-25.5 31.1-25.5L31.1-25.5Q33.35-25.5 34.92-24.95 36.5-24.4 37.5-23.45 38.5-22.5 38.97-21.2 39.45-19.9 39.45-18.4L39.45-18.4Q39.45-16.6 38.45-14.98 37.45-13.35 35.57-12.13 33.7-10.9 31.05-10.18 28.4-9.45 25.1-9.4L25.1-9.4Q25.25-8.25 25.57-7.23 25.9-6.2 26.52-5.43 27.15-4.65 28.15-4.2 29.15-3.75 30.65-3.75L30.65-3.75Q31.75-3.75 33-4 34.25-4.25 35.3-4.6L35.3-4.6Q36.55-5 37.75-5.5L37.75-5.5 39.25-1.95Q37.95-1.3 36.45-0.8L36.45-0.8Q35.15-0.35 33.45 0 31.75 0.35 29.85 0.35L29.85 0.35Q26.95 0.35 24.9-0.53 22.85-1.4 21.55-3 20.25-4.6 19.65-6.85 19.05-9.1 19.05-11.85L19.05-11.85ZM30.65-21.6Q29-21.6 27.92-20.83 26.85-20.05 26.2-18.82 25.55-17.6 25.27-16.07 25-14.55 24.95-13L24.95-13Q27.35-13.1 29.02-13.63 30.7-14.15 31.75-14.93 32.8-15.7 33.27-16.6 33.75-17.5 33.75-18.4L33.75-18.4Q33.75-19.85 32.9-20.73 32.05-21.6 30.65-21.6L30.65-21.6ZM44.2-35.25L49.9-36.25 49.9-22Q50.3-22.5 50.92-23.08 51.55-23.65 52.5-24.15 53.45-24.65 54.7-25 55.95-25.35 57.6-25.35L57.6-25.35Q59.15-25.35 60.5-24.9 61.85-24.45 62.82-23.6 63.8-22.75 64.37-21.53 64.95-20.3 64.95-18.75L64.95-18.75Q64.95-16.5 64.02-15.05 63.1-13.6 61.95-12.75L61.95-12.75Q60.65-11.75 58.95-11.15L58.95-11.15 65.95 0 59.5 0 52.3-12.45 52.25-12.95Q52.65-13.05 53.77-13.4 54.9-13.75 56.1-14.4 57.3-15.05 58.22-16.03 59.15-17 59.15-18.35L59.15-18.35Q59.15-19.8 58.3-20.55 57.45-21.3 56.05-21.3L56.05-21.3Q54.15-21.3 52.95-20.55 51.75-19.8 51.07-18.85 50.4-17.9 50.15-17.05 49.9-16.2 49.9-16.05L49.9-16.05 49.9 0 44.2 0 44.2-35.25ZM83.59-24.9L89.39-24.9 89.49-24.5Q89.54-24.05 89.64-23.33 89.74-22.6 89.82-21.68 89.89-20.75 89.89-19.8L89.89-19.8Q89.89-14.25 89.07-10.43 88.24-6.6 86.57-4.23 84.89-1.85 82.32-0.8 79.74 0.25 76.24 0.25L76.24 0.25Q72.29 0.25 70.62-2.02 68.94-4.3 68.94-8.3L68.94-8.3 68.94-24.9 74.64-24.9 74.64-8.45Q74.64-6.35 75.39-5.05 76.14-3.75 77.94-3.75L77.94-3.75Q79.74-3.75 80.94-5.1 82.14-6.45 82.84-8.63 83.54-10.8 83.84-13.58 84.14-16.35 84.14-19.2L84.14-19.2Q84.14-20.25 84.07-21.28 83.99-22.3 83.87-23.1 83.74-23.9 83.69-24.4L83.69-24.4 83.59-24.9ZM100.64 0.2Q97.99 0.2 96.59-1.38 95.19-2.95 95.19-5.45L95.19-5.45 95.19-24.9 100.89-24.9 100.89-5.95Q100.89-4.8 101.24-4.4 101.59-4 102.29-4L102.29-4Q102.49-4 102.72-4 102.94-4 103.14-4.05L103.14-4.05Q103.34-4.05 103.59-4.1L103.59-4.1 104.19-0.5Q103.84-0.3 103.29-0.15L103.29-0.15Q102.84 0 102.17 0.1 101.49 0.2 100.64 0.2L100.64 0.2ZM98.14-36Q99.74-36 100.59-35.05 101.44-34.1 101.44-32.6L101.44-32.6Q101.44-31.1 100.57-30.1 99.69-29.1 97.99-29.1L97.99-29.1Q96.39-29.1 95.52-30.08 94.64-31.05 94.64-32.45L94.64-32.45Q94.64-34 95.52-35 96.39-36 98.14-36L98.14-36ZM108.19-1.15L108.19-35.25 113.89-36.25 113.89-21Q114.79-23.05 116.41-24.18 118.04-25.3 120.59-25.3L120.59-25.3Q122.94-25.3 124.66-24.43 126.39-23.55 127.54-21.93 128.69-20.3 129.24-18 129.79-15.7 129.79-12.9L129.79-12.9Q129.79-10.05 128.91-7.63 128.04-5.2 126.46-3.45 124.89-1.7 122.69-0.7 120.49 0.3 117.84 0.3L117.84 0.3Q116.34 0.3 114.64 0.08 112.94-0.15 111.49-0.4L111.49-0.4Q109.84-0.7 108.19-1.15L108.19-1.15ZM119.64-21.3Q118.39-21.3 117.34-20.45 116.29-19.6 115.51-18.2 114.74-16.8 114.31-15.05 113.89-13.3 113.89-11.45L113.89-11.45 113.89-4.2Q114.34-4.1 115.34-3.9 116.34-3.7 117.19-3.7L117.19-3.7Q119.04-3.7 120.29-4.35 121.54-5 122.29-6.15 123.04-7.3 123.34-8.9 123.64-10.5 123.64-12.4L123.64-12.4Q123.64-14.15 123.54-15.75 123.44-17.35 123.01-18.6 122.59-19.85 121.79-20.58 120.99-21.3 119.64-21.3L119.64-21.3ZM133.29-11.85Q133.29-15.2 134.21-17.75 135.14-20.3 136.76-22.03 138.39-23.75 140.59-24.63 142.79-25.5 145.34-25.5L145.34-25.5Q147.59-25.5 149.16-24.95 150.74-24.4 151.74-23.45 152.74-22.5 153.21-21.2 153.69-19.9 153.69-18.4L153.69-18.4Q153.69-16.6 152.69-14.98 151.69-13.35 149.81-12.13 147.94-10.9 145.29-10.18 142.64-9.45 139.34-9.4L139.34-9.4Q139.49-8.25 139.81-7.23 140.14-6.2 140.76-5.43 141.39-4.65 142.39-4.2 143.39-3.75 144.89-3.75L144.89-3.75Q145.99-3.75 147.24-4 148.49-4.25 149.54-4.6L149.54-4.6Q150.79-5 151.99-5.5L151.99-5.5 153.49-1.95Q152.19-1.3 150.69-0.8L150.69-0.8Q149.39-0.35 147.69 0 145.99 0.35 144.09 0.35L144.09 0.35Q141.19 0.35 139.14-0.53 137.09-1.4 135.79-3 134.49-4.6 133.89-6.85 133.29-9.1 133.29-11.85L133.29-11.85ZM144.89-21.6Q143.24-21.6 142.16-20.83 141.09-20.05 140.44-18.82 139.79-17.6 139.51-16.07 139.24-14.55 139.19-13L139.19-13Q141.59-13.1 143.26-13.63 144.94-14.15 145.99-14.93 147.04-15.7 147.51-16.6 147.99-17.5 147.99-18.4L147.99-18.4Q147.99-19.85 147.14-20.73 146.29-21.6 144.89-21.6L144.89-21.6Z" opacity="1" transform="matrix(1,0,0,1,0,0)" fill="#ffffff" class="undefined-text-0" data-fill-palette-color="primary" id="text-0"></path></svg></g></svg></g></svg></g></svg></g></svg></g></svg></g></svg></g><g><path d="M245.816 0c68.262 0 123.6 55.338 123.6 123.6 0 68.262-55.338 123.6-123.6 123.6-55.707 0-102.806-36.853-118.248-87.509h2.756c15.353 49.181 61.253 84.876 115.492 84.876 66.808 0 120.967-54.159 120.967-120.967 0-66.808-54.159-120.967-120.967-120.967-54.238 0-100.139 35.696-115.492 84.876h-2.756c15.441-50.656 62.541-87.509 118.248-87.509z" fill="#ffffff" stroke="transparent" data-fill-palette-color="tertiary"></path></g></svg></g><defs></defs></svg><rect width="395.52" height="247.2" fill="none" stroke="none" visibility="hidden"></rect></g></svg></g></svg>